<svg width="104" height="113" viewBox="0 0 104 113" fill="none" xmlns="http://www.w3.org/2000/svg">
<path d="M103.5 42.5C103.5 70.1142 72 117.5 53 112C39 87 11.5 86.5 0 67.5C2.5 44 22.8858 0 50.5 0C71.5 26 81.5 16 103.5 42.5Z" fill="black"/>
<path d="M46.8679 85.0487L46.868 85.0488C47.3097 85.5099 47.6961 85.8679 48.0228 86.1085C48.1859 86.2286 48.348 86.3299 48.5057 86.3987C48.6568 86.4646 48.8501 86.5214 49.0567 86.4921C49.54 86.4234 49.7305 85.971 49.8107 85.6748C49.9041 85.3298 49.942 84.8673 49.942 84.3147V76.55C49.942 76.1962 49.9309 75.8931 49.9071 75.645C49.885 75.4136 49.8488 75.1935 49.7813 75.0189C49.6553 74.6543 49.3756 74.2911 49.0161 73.9333C49.0152 73.9325 49.0143 73.9316 49.0135 73.9307L29.701 54.1487C29.6385 54.073 29.6356 54.0314 29.6356 54.0162C29.6356 53.996 29.6424 53.9392 29.7132 53.8387L49.0161 34.0667C49.3686 33.7159 49.6486 33.3759 49.7757 33.0602L49.7812 33.0465L49.7859 33.0325C49.9017 32.687 49.942 32.1363 49.942 31.45V23.6853C49.942 23.1327 49.9041 22.6702 49.8107 22.3252C49.7305 22.029 49.54 21.5766 49.0567 21.5079L48.9864 22.0029L49.0567 21.5079C48.8501 21.4786 48.6568 21.5354 48.5057 21.6013C48.348 21.6701 48.1859 21.7714 48.0228 21.8915C47.6961 22.1321 47.3097 22.4901 46.868 22.9512L46.8679 22.9514L21.3589 49.6058C21.0073 49.9559 20.728 50.2952 20.6012 50.6104L20.5885 50.6421L20.5802 50.6751C20.5193 50.9173 20.5 51.324 20.5 51.8324V56.3618C20.5 56.6051 20.5055 56.8124 20.5176 56.98C20.5287 57.1347 20.5477 57.2973 20.591 57.4266L20.6124 57.4903L20.6498 57.5461C20.7597 57.71 21.0018 57.9956 21.3432 58.3774L21.3488 58.3837L21.3547 58.3898L46.8679 85.0487ZM56.2141 33.0325L56.2188 33.0465L56.2243 33.0602C56.3514 33.3759 56.6314 33.7159 56.9838 34.0666C56.9847 34.0675 56.9856 34.0684 56.9865 34.0693L76.2868 53.8387C76.3576 53.9392 76.3644 53.996 76.3644 54.0162C76.3644 54.0314 76.3615 54.073 76.299 54.1487L56.9865 73.9307C56.9857 73.9316 56.9848 73.9325 56.9839 73.9333C56.6244 74.2911 56.3447 74.6543 56.2187 75.019C56.1512 75.1935 56.115 75.4136 56.0929 75.645C56.0691 75.8931 56.058 76.1962 56.058 76.55V84.3147C56.058 84.8673 56.0959 85.3298 56.1893 85.6748C56.2695 85.971 56.46 86.4235 56.9433 86.4921C57.1499 86.5214 57.3432 86.4646 57.4943 86.3987C57.652 86.3299 57.8141 86.2286 57.9772 86.1085C58.3039 85.8679 58.6903 85.5099 59.132 85.0488L59.1321 85.0487L84.6453 58.3898L84.6512 58.3837L84.6568 58.3774C84.8348 58.1783 84.9806 58.005 85.09 57.8599C85.1741 57.7484 85.2645 57.6185 85.32 57.489C85.4037 57.3384 85.4411 57.1634 85.4624 57.0152C85.4888 56.8315 85.5 56.6113 85.5 56.3618V51.8324C85.5 51.5617 85.4888 51.3235 85.4635 51.1229C85.4425 50.9551 85.4082 50.7833 85.3449 50.6339C85.2976 50.4563 85.206 50.2898 85.1012 50.1393C84.9818 49.9678 84.8257 49.7897 84.6411 49.6058L59.1321 22.9514L59.132 22.9512C58.6903 22.4901 58.3039 22.1321 57.9772 21.8915C57.8141 21.7714 57.652 21.6701 57.4943 21.6013C57.3432 21.5354 57.1499 21.4786 56.9433 21.5079L57.0136 22.0028L56.9433 21.5079C56.46 21.5766 56.2695 22.029 56.1893 22.3252C56.0959 22.6702 56.058 23.1327 56.058 23.6853V31.45C56.058 32.1363 56.0983 32.687 56.2141 33.0325Z" fill="white" stroke="#0500FF"/>
<path d="M84.0689 41.5397L84.0691 41.5395C84.5231 41.1046 84.8759 40.7239 85.1131 40.4017C85.2315 40.2409 85.3316 40.0808 85.3996 39.9248C85.4648 39.7755 85.5213 39.5836 85.4921 39.3782C85.4238 38.8973 84.9737 38.7085 84.6819 38.6295C84.3413 38.5373 83.8852 38.5 83.341 38.5H75.6977C75.3493 38.5 75.0506 38.5109 74.806 38.5343C74.5781 38.5561 74.3607 38.5918 74.1878 38.6586C73.8272 38.7833 73.4688 39.0596 73.1163 39.4137C73.1155 39.4146 73.1146 39.4155 73.1137 39.4164L53.6411 58.4285C53.5679 58.4889 53.5287 58.4908 53.5159 58.4908C53.4981 58.4908 53.4439 58.485 53.3463 58.4162L33.8836 39.4137C33.5382 39.0666 33.2027 38.79 32.8903 38.6643L32.8766 38.6588L32.8626 38.6541C32.5212 38.5396 31.9779 38.5 31.3023 38.5H23.659C23.1148 38.5 22.6587 38.5373 22.3181 38.6295C22.0263 38.7085 21.5762 38.8973 21.5079 39.3782L22.0029 39.4485L21.5079 39.3782C21.4787 39.5836 21.5352 39.7755 21.6004 39.9248C21.6684 40.0808 21.7685 40.2409 21.8869 40.4017C22.1241 40.7239 22.4769 41.1046 22.9309 41.5395L22.9311 41.5397L49.1689 66.6522C49.5136 66.9984 49.8486 67.2743 50.1605 67.3998L50.1921 67.4125L50.2252 67.4208C50.4646 67.481 50.866 67.5 51.3662 67.5H55.8249C56.0645 67.5 56.2687 67.4946 56.434 67.4827C56.5863 67.4717 56.7473 67.453 56.8755 67.41L56.9393 67.3886L56.9951 67.3512C57.1569 67.2427 57.4385 67.0039 57.8142 66.6679L57.8205 66.6623L57.8267 66.6564L84.0689 41.5397Z" fill="white" stroke="#DBFF00"/>
</svg>
